<svg xmlns="http://www.w3.org/2000/svg" class="svg-icon" data-fc-idx="0"><svg viewBox="0 0 184 40.5" style="fill: rgb(255, 255, 255) !important;">
    <path d="M12.1,0L12.1,0c-0.3,0.6-0.5,1.2-0.5,2.6c0,0,0,12,0,12.1c0.6,0,1.7,0,2,0c2,0,4.1,0.3,5-0.6l0.1,0l-0.7,2 c-1.1-0.1-2.7-0.3-4.3-0.3c-1.4,0-2.5,0-4.5,0.2L9,16l0-0.1c0.2-0.6,0.4-1.1,0.4-2.5l0-10.8c0-1.4-0.1-2-0.4-2.5L9,0H12.1z M22,7.8 L22,7.8c0.5,1.1,0.8,2.1,0.8,4.7c0,0-0.2,7.8-0.2,7.9c-0.5-0.1-5.2-1-9.6-1c-4.5,0-9,0.9-9.5,1c0-0.1,0-7.9,0-7.9 C3.5,10,3.9,9,4.3,7.9l0-0.1H0.1l0,0.1c0.5,1,0.7,2.1,0.7,4.7l0,19.9c0,2.6-0.4,3.6-0.8,4.7l0,0.1h4.3l0-0.1 c-0.5-1-0.7-2.1-0.7-4.7c0,0,0-9.8,0-9.9c0.3-0.1,4.2-1,9.5-1c5.3,0,9.2,0.9,9.6,1c0,0.1,0.1,9.9,0.1,9.9c0,2.6-0.3,3.6-0.7,4.7 l0,0.1h4.2l0-0.1c-0.5-1-0.7-2.1-0.7-4.7l0-19.8c0-2.6,0.4-3.6,0.8-4.7l0-0.1H22z M13.4,25.3c0,0-3.4,10.8-3.5,11 c-0.3-1-2.1-7.7-2.4-8.7c-0.2-0.5-0.3-1.3-0.3-1.6c0-0.4,0.1-0.7,0.1-0.8l0.1-0.1c0,0-0.9,0.1-1.4,0.2c-0.5,0.1-1.4,0.2-1.4,0.2 l0.1,0.1c0.3,0.4,0.4,0.7,0.8,2l3.8,12.8h0.2c0,0,3.5-10.7,3.6-10.9c0.1,0.2,3.7,10.9,3.7,10.9H17l3.9-12.8 c0.4-1.3,0.7-1.8,0.9-2.1l0.1-0.1c-0.1,0-0.5-0.1-1-0.2c-0.5-0.1-1-0.2-1-0.2l0.1,0.1c0,0,0.1,0.2,0.1,0.6c0,0.3-0.1,1.1-0.3,1.8 c0,0-2.4,8.4-2.5,8.7c-0.1-0.3-3.7-11.1-3.7-11.1H13.4z"/>
    <path d="M123.3,26.4h-1c0,0,0.2,0.1-0.1,0.7l-1.2,3l-1.7-3.8h-0.2l-1.7,3.9c0,0-1.1-2.8-1.2-3.1c-0.2-0.5,0-0.7,0-0.7 h-1.4c0.2,0.2,0.2,0.3,0.4,0.7l1.9,4.6h0.3l1.7-3.7l1.8,3.7h0.2l1.9-4.6C123.1,26.7,123.2,26.5,123.3,26.4 M139.2,28.5 c-0.3,0-0.7,0-1.3,0c0,0-0.7,0-0.7,0l0-1.7c0,0,0.5,0,0.7,0c0.4,0,0.9,0,1.2,0.1c0.4,0.1,0.8,0.3,0.8,0.7 C140,28.2,139.8,28.4,139.2,28.5 M141.2,31.1c-0.5-0.7-0.9-1.4-1.2-1.7c-0.1-0.2-0.3-0.4-0.4-0.4c0.3,0,1.5-0.2,1.5-1.3 c0-1.3-1.5-1.3-3.3-1.3c0,0-1.8,0-1.8,0c0.1,0.2,0.2,0.4,0.2,0.8l0,3.6c0,0.5-0.1,0.7-0.2,0.9h1.5c-0.1-0.2-0.2-0.4-0.2-0.9v-1.7 c0.3,0,0.9,0,1.2,0.1c0.4,0.1,0.7,0.4,1.2,1.2c0.4,0.7,0.8,1.2,0.8,1.2c0.2,0,1.4,0,1.4,0S141.5,31.4,141.2,31.1 M71,30.8l0-1.7 c0.6,0,2.7,0,3,0.2v-0.9c-0.2,0.2-2.2,0.2-3,0.2l0-1.5c0,0,2.7-0.1,3.3,0.1c0.2,0,0.3,0.1,0.3,0.1c0,0,0-0.8,0-0.8h-4.7 c0.1,0.2,0.2,0.4,0.2,0.8l0,3.6c0,0.5-0.1,0.6-0.2,0.9h1.3C71,31.5,71,31.3,71,30.8 M96.9,27.2c0-0.5,0.1-0.7,0.2-0.9 c0,0-1.3,0-1.3,0c0.1,0.2,0.2,0.4,0.2,0.9v1.3h-3.3l0-1.3c0-0.5,0.1-0.7,0.2-0.9c0,0-1.3,0-1.3,0c0.1,0.2,0.2,0.4,0.2,0.9l0,3.6 c0,0.5-0.1,0.7-0.2,0.8h1.3c-0.1-0.2-0.2-0.4-0.2-0.8v-1.7h3.3l0,1.7c0,0.5-0.1,0.7-0.2,0.8H97c-0.1-0.2-0.2-0.4-0.2-0.8V27.2z M104,31.1c-0.3,0-1.5,0-1.6,0l0-1.9c0.6,0,2.6,0,2.9,0.2v-0.9c-0.2,0.2-2.2,0.2-2.9,0.2v-1.6c0,0,2.7-0.1,3.3,0.1 c0.2,0,0.3,0.1,0.3,0.1c0,0,0-0.8,0-0.8h-4.7c0.1,0.2,0.2,0.4,0.2,0.9l0,3.6c0,0.5-0.1,0.6-0.2,0.8h4.8l0.2-0.8 C105.9,31.1,104.9,31.1,104,31.1 M85.9,26.9H87c0.4,0,0.8,0,0.9,0.2v-0.8h-5.1v0.8c0.1-0.2,0.5-0.2,0.9-0.2h1.1v3.9 c0,0.5-0.1,0.7-0.2,0.8c0,0,1.3,0,1.3,0c-0.1-0.2-0.2-0.4-0.2-0.8V26.9z M149.8,30.8c-0.4,0.3-1.4,0.3-2.3,0.2c-0.3,0-0.9,0-0.9,0 l0-3.8c0-0.5,0.1-0.7,0.2-0.8c0,0-1.3,0-1.3,0c0.1,0.2,0.2,0.4,0.2,0.8l0,3.6c0,0.5-0.1,0.7-0.2,0.8h4.2L149.8,30.8z M60.4,28.9 c0,0.7,0.2,1.3,0.8,1.8c0.3,0.2,0.8,0.5,1.5,0.5c0.7,0,1.2-0.2,1.5-0.5c0.5-0.5,0.8-1.1,0.8-1.7c0-0.7-0.2-1.3-0.8-1.7 c-0.4-0.3-0.8-0.4-1.5-0.4c-0.7,0-1.2,0.2-1.5,0.4C60.7,27.5,60.4,28.2,60.4,28.9 M62.7,26.2c1.1,0,2.1,0.3,2.7,1 c0.4,0.4,0.7,1,0.7,1.8c0,0.5-0.3,1.2-0.7,1.7c-0.7,0.8-1.6,1.1-2.7,1.1c-1.1,0-2.1-0.4-2.7-1.1c-0.4-0.5-0.6-1.1-0.6-1.7 c0-0.7,0.3-1.3,0.7-1.7C60.8,26.5,61.7,26.2,62.7,26.2 M126.8,29c0,0.7,0.2,1.3,0.8,1.8c0.3,0.2,0.8,0.5,1.5,0.5 c0.7,0,1.2-0.1,1.5-0.5c0.5-0.5,0.8-1.1,0.8-1.8c0-0.7-0.2-1.3-0.8-1.7c-0.4-0.3-0.8-0.4-1.5-0.4c-0.7,0-1.2,0.2-1.5,0.4 C127.1,27.6,126.8,28.2,126.8,29 M129,26.3c1.1,0,2.1,0.3,2.7,1c0.4,0.4,0.7,1.1,0.7,1.8c0,0.5-0.3,1.2-0.7,1.7 c-0.7,0.8-1.6,1.1-2.7,1.1c-1.1,0-2.1-0.4-2.7-1.1c-0.4-0.5-0.6-1.1-0.6-1.7c0-0.7,0.3-1.3,0.7-1.7C127.1,26.6,128,26.3,129,26.3 M155.7,31.1h-1.6v-4.1h1.6c1.5,0,2.1,0.7,2.1,2C157.8,30.2,157.2,31.1,155.7,31.1 M155.7,26.4h-2.8c0.1,0.2,0.2,0.4,0.2,0.8v3.6 c0,0.5-0.1,0.7-0.2,0.8h2.8c1.6,0,3.1-0.9,3.1-2.7C158.8,26.8,157.1,26.4,155.7,26.4 M97.4,19.6h-2.1v-5.2h2.1 c1.9,0,2.7,0.9,2.7,2.5C100,18.5,99.3,19.6,97.4,19.6 M97.4,13.7h-3.6c0.1,0.2,0.2,0.5,0.2,1.1l0,4.5c0,0.6-0.1,0.8-0.2,1.1h3.6 c2.1,0,3.9-1.1,3.9-3.4C101.3,14.2,99.1,13.7,97.4,13.7 M115.5,14.7c0-0.6,0.1-0.8,0.2-1.1h-1.1c0.1,0.2,0.2,0.5,0.2,1.1v4.1 l-4.3-5.1l-1.6,0c0.1,0.2,0.2,0.5,0.2,1.1l0,4.5c0,0.6-0.1,0.8-0.2,1.1h1.1c-0.1-0.2-0.2-0.5-0.2-1.1v-4.4l4.6,5.5h1.1V14.7z M74,19.3c-0.5,0.4-1.8,0.3-2.9,0.3c-0.3,0-1.2,0-1.2,0l0-4.8c0-0.6,0.1-0.8,0.2-1.1h-1.6c0.1,0.2,0.2,0.5,0.2,1.1v4.5 c0,0.6-0.1,0.8-0.2,1.1h5.3L74,19.3z M176.4,19.3c-0.5,0.4-1.8,0.3-2.9,0.3c-0.3,0-1.2,0-1.2,0l0-4.8c0-0.6,0.1-0.8,0.2-1.1H171 c0.1,0.2,0.2,0.5,0.2,1.1l0,4.5c0,0.6-0.1,0.8-0.2,1.1h5.3L176.4,19.3z M105.4,14.7c0-0.6,0.1-0.8,0.2-1.1H104 c0.1,0.2,0.2,0.5,0.2,1.1l0,4.5c0,0.6-0.1,0.8-0.2,1.1h1.6c-0.1-0.2-0.2-0.5-0.2-1.1L105.4,14.7z M181.1,13.6 c-1.6,0-2.9,0.4-3.1,1.7c0,0.3,0,0.7,0.3,1c0.9,1,3.1,1.1,4,1.8c0.3,0.2,0.4,0.5,0.4,0.8c-0.1,0.8-1,1-2.2,0.9 c-1.6,0-2.4-0.6-2.6-0.9c0,0,0,1.1,0,1.1c0.5,0.2,1.4,0.5,2.6,0.5c1.8,0,3.4-0.4,3.5-1.9c0-0.3,0-0.8-0.3-1.1 c-0.5-0.6-1.6-0.9-2.6-1.2c-0.9-0.3-1.8-0.5-1.8-1.1c0-0.6,0.9-0.8,1.8-0.8c0.7,0,1.4,0.1,1.9,0.3c0.2,0.1,0.5,0.2,0.7,0.4l0-1 C183,13.8,181.9,13.6,181.1,13.6 M144.3,16.9c0,0.9,0.3,1.6,1,2.2c0.3,0.3,1,0.6,1.9,0.6c0.9,0,1.5-0.2,1.9-0.6 c0.6-0.6,1-1.4,1-2.2c0-0.9-0.3-1.7-1-2.2c-0.5-0.3-1-0.5-1.9-0.5c-0.9,0-1.5,0.2-1.9,0.5C144.7,15.2,144.3,16,144.3,16.9 M147.1,13.6c1.4,0,2.6,0.4,3.3,1.2c0.5,0.5,0.8,1.3,0.8,2.2c0,0.6-0.3,1.5-0.8,2.1c-0.9,1-2,1.4-3.3,1.4c-1.4,0-2.6-0.5-3.4-1.4 c-0.5-0.6-0.8-1.4-0.8-2.1c0-0.9,0.3-1.6,0.9-2.2C144.7,13.9,145.8,13.6,147.1,13.6 M140,14.7c0-0.6,0.1-0.8,0.2-1.1h-1.6 c0.1,0.2,0.2,0.5,0.2,1.1l0,1.7h-4.2v-1.7c0-0.6,0.1-0.8,0.2-1.1h-1.6c0.1,0.2,0.2,0.5,0.2,1.1v4.5c0,0.6-0.1,0.8-0.2,1.1h1.6 c-0.1-0.2-0.2-0.5-0.2-1.1v-2.1h4.2v2.1c0,0.6-0.1,0.8-0.2,1.1h1.6c-0.1-0.2-0.2-0.5-0.2-1.1L140,14.7z M51.6,14.7 c0-0.6,0.1-0.8,0.2-1.1h-1.6c0.1,0.2,0.2,0.5,0.2,1.1v1.7h-4.2v-1.7c0-0.6,0.1-0.8,0.2-1.1h-1.6c0.1,0.2,0.2,0.5,0.2,1.1l0,4.5 c0,0.6-0.1,0.8-0.2,1.1h1.6c-0.1-0.2-0.2-0.5-0.2-1.1v-2.1h4.2v2.1c0,0.6-0.1,0.8-0.2,1.1h1.6c-0.1-0.2-0.2-0.5-0.2-1.1L51.6,14.7 z M165.1,19.6c-0.4,0-1.9,0-2,0l0-2.5c0.7,0,3.3,0,3.7,0.2v-1.1c-0.3,0.3-2.7,0.2-3.7,0.2l0-2c0,0,3.4-0.1,4.2,0.1 c0.2,0.1,0.4,0.2,0.4,0.2c0,0,0-1,0-1c0,0-6,0-6,0c0.1,0.2,0.2,0.5,0.2,1.1l0,4.5c0,0.6-0.1,0.8-0.2,1.1l6.1,0l0.2-1.1 C167.5,19.6,166.2,19.6,165.1,19.6 M79.2,19.6c-0.4,0-1.9,0-2,0l0-2.5c0.8,0,3.3,0,3.7,0.2v-1.1c-0.3,0.3-2.7,0.2-3.7,0.2v-2 c0,0,3.4-0.1,4.2,0.1c0.2,0.1,0.4,0.2,0.4,0.2c0,0,0-1,0-1l-6,0c0.1,0.2,0.2,0.5,0.2,1.1l0,4.5c0,0.6-0.1,0.8-0.2,1.1l6.1,0 l0.2-1.1C81.7,19.6,80.4,19.6,79.2,19.6 M58.5,19.6c-0.4,0-1.9,0-2,0l0-2.5c0.7,0,3.3,0,3.7,0.2v-1.1c-0.3,0.3-2.7,0.2-3.7,0.2 l0-2c0,0,3.4-0.1,4.2,0.1c0.2,0.1,0.4,0.2,0.4,0.2c0,0,0-1,0-1c0,0-6,0-6,0c0.1,0.2,0.2,0.5,0.2,1.1v4.5c0,0.6-0.1,0.8-0.2,1.1 l6.1,0l0.2-1.1C60.9,19.6,59.6,19.6,58.5,19.6 M156.7,14.4l1.4,0c0.6,0,1,0,1.2,0.3v-1h-6.4v1c0.2-0.2,0.7-0.3,1.2-0.3l1.4,0v4.9 c0,0.6-0.1,0.8-0.2,1.1c0,0,1.6,0,1.6,0c-0.1-0.2-0.2-0.5-0.2-1.1V14.4z M39.9,14.4l1.4,0c0.6,0,1,0,1.2,0.3v-1h-6.4v1 c0.2-0.2,0.7-0.3,1.2-0.3l1.4,0v4.9c0,0.6-0.1,0.8-0.2,1.1c0,0,1.6,0,1.6,0c-0.1-0.2-0.2-0.5-0.2-1.1V14.4z M125.7,14.2 c-0.7-0.4-1.9-0.6-2.9-0.6c-1.6,0-2.7,0.5-3.4,1c-0.8,0.6-1.2,1.4-1.2,2.4c0,0.9,0.5,1.8,1.2,2.4c0.9,0.7,2,1.1,3.4,1.1 c1.2,0,2-0.2,2.9-0.8v-2.7l-1.4,0c0.1,0.1,0.2,0.4,0.2,0.9l0,1.5c-0.5,0.3-1,0.3-1.7,0.3c-1.2,0-2.1-0.3-2.6-0.9 c-0.5-0.6-0.8-1.1-0.8-1.8s0.3-1.3,0.8-1.8c0.7-0.6,1.5-0.9,2.6-0.9c0.9,0,1.9,0.2,2.5,0.7c0.2,0.1,0.3,0.2,0.4,0.3V14.2z M85.8,17.8h2.9L87.3,15L85.8,17.8z M88,13.7l3.3,6c0.2,0.3,0.4,0.6,0.6,0.7c-0.1,0-2.1,0-2.1,0c0.1-0.2,0.1-0.4,0-0.8l-0.6-1.1 h-3.6l-0.6,1.3c-0.1,0.3-0.1,0.5,0,0.6h-1.4c0.2-0.1,0.4-0.4,0.5-0.6l3.2-6.1L88,13.7z"/>
    <path d="M161.9,27.6c0.2,0,0.3-0.1,0.3-0.2c0-0.1-0.1-0.2-0.3-0.2h-0.4v0.5H161.9z M161.3,26.9h0.7 c0.4,0,0.5,0.2,0.5,0.4c0,0.2-0.2,0.4-0.4,0.4v0c0.1,0,0.2,0.2,0.4,0.4l0.2,0.3h-0.3l-0.1-0.2c-0.2-0.3-0.3-0.4-0.5-0.4h-0.1v0.7 h-0.2V26.9z M162,26.5c-0.7,0-1.2,0.5-1.2,1.2c0,0.7,0.5,1.2,1.2,1.2c0.7,0,1.2-0.5,1.2-1.2C163.2,27,162.6,26.5,162,26.5 M162,29.1c-0.8,0-1.4-0.6-1.4-1.4c0-0.8,0.6-1.4,1.4-1.4c0.8,0,1.4,0.6,1.4,1.4C163.4,28.5,162.8,29.1,162,29.1"/>
  </svg></svg>